<svg width="64" height="64" viewBox="0 0 64 64" fill="none" xmlns="http://www.w3.org/2000/svg">
  <defs>
    <linearGradient id="ecoGradient" x1="0%" y1="0%" x2="100%" y2="100%">
      <stop offset="0%" style="stop-color:#39FF14;stop-opacity:1" />
      <stop offset="50%" style="stop-color:#72FF5D;stop-opacity:1" />
      <stop offset="100%" style="stop-color:#39FF14;stop-opacity:1" />
    </linearGradient>
  </defs>
  <!-- Chain links -->
  <ellipse cx="20" cy="32" rx="8" ry="6" fill="url(#ecoGradient)" stroke="#0A2472" stroke-width="2"/>
  <ellipse cx="44" cy="32" rx="8" ry="6" fill="url(#ecoGradient)" stroke="#0A2472" stroke-width="2"/>
  <ellipse cx="32" cy="20" rx="6" ry="8" fill="url(#ecoGradient)" stroke="#0A2472" stroke-width="2"/>
  <ellipse cx="32" cy="44" rx="6" ry="8" fill="url(#ecoGradient)" stroke="#0A2472" stroke-width="2"/>
  <!-- Leaf symbol -->
  <path d="M32 16C32 16 36 20 36 24C36 28 32 32 32 32C32 32 28 28 28 24C28 20 32 16 32 16Z" 
        fill="#39FF14" stroke="#0A2472" stroke-width="1"/>
  <path d="M32 32C32 32 36 36 36 40C36 44 32 48 32 48C32 48 28 44 28 40C28 36 32 32 32 32Z" 
        fill="#39FF14" stroke="#0A2472" stroke-width="1"/>
</svg> 