<svg width="64" height="64" viewBox="0 0 64 64" fill="none" xmlns="http://www.w3.org/2000/svg">
  <defs>
    <linearGradient id="hubGradient" x1="0%" y1="0%" x2="100%" y2="100%">
      <stop offset="0%" style="stop-color:#39FF14;stop-opacity:1" />
      <stop offset="25%" style="stop-color:#00F6FF;stop-opacity:1" />
      <stop offset="50%" style="stop-color:#FF2E92;stop-opacity:1" />
      <stop offset="75%" style="stop-color:#2A004F;stop-opacity:1" />
      <stop offset="100%" style="stop-color:#39FF14;stop-opacity:1" />
    </linearGradient>
  </defs>
  <!-- Central hub -->
  <circle cx="32" cy="32" r="12" fill="url(#hubGradient)" stroke="#39FF14" stroke-width="2"/>
  <!-- Innovation rays -->
  <path d="M32 8L36 12L32 16M56 32L52 36L48 32M32 56L36 52L32 48M8 32L12 36L16 32" 
        stroke="#39FF14" stroke-width="2" stroke-linecap="round"/>
  <!-- Technology nodes -->
  <circle cx="32" cy="16" r="3" fill="#00F6FF"/>
  <circle cx="48" cy="32" r="3" fill="#FF2E92"/>
  <circle cx="32" cy="48" r="3" fill="#2A004F"/>
  <circle cx="16" cy="32" r="3" fill="#39FF14"/>
  <!-- Connection lines -->
  <path d="M32 19L44 29M44 35L32 45M32 45L20 35M20 29L32 19" 
        stroke="#39FF14" stroke-width="1" stroke-dasharray="2,2"/>
</svg> 