<svg width="24" height="24" viewBox="0 0 24 24" fill="none" xmlns="http://www.w3.org/2000/svg">
  <circle cx="12" cy="12" r="3" stroke="currentColor" stroke-width="2"/>
  <path d="M19.4 15A1.65 1.65 0 0 0 18 14.63L16.5 12.5C16.5 12.5 16.5 12.5 16.5 12.5C16.5 12.5 16.5 12.5 16.5 12.5L18 10.37A1.65 1.65 0 0 0 19.4 9L21.54 10.37C21.54 10.37 21.54 10.37 21.54 10.37C21.54 10.37 21.54 10.37 21.54 10.37L20.14 12.5C20.14 12.5 20.14 12.5 20.14 12.5C20.14 12.5 20.14 12.5 20.14 12.5L21.54 14.63A1.65 1.65 0 0 0 19.4 15Z" stroke="currentColor" stroke-width="2"/>
  <path d="M4.6 9A1.65 1.65 0 0 1 6 10.37L7.5 12.5C7.5 12.5 7.5 12.5 7.5 12.5C7.5 12.5 7.5 12.5 7.5 12.5L6 14.63A1.65 1.65 0 0 1 4.6 15L2.46 13.63C2.46 13.63 2.46 13.63 2.46 13.63C2.46 13.63 2.46 13.63 2.46 13.63L3.86 11.5C3.86 11.5 3.86 11.5 3.86 11.5C3.86 11.5 3.86 11.5 3.86 11.5L2.46 9.37A1.65 1.65 0 0 1 4.6 9Z" stroke="currentColor" stroke-width="2"/>
  <path d="M12 15C13.6569 15 15 13.6569 15 12C15 10.3431 13.6569 9 12 9C10.3431 9 9 10.3431 9 12C9 13.6569 10.3431 15 12 15Z" stroke="currentColor" stroke-width="2"/>
</svg> 