<svg width="24" height="24" viewBox="0 0 24 24" fill="none" xmlns="http://www.w3.org/2000/svg">
  <path d="M23 3A10.9 10.9 0 0 1 20.1 4.8C21.2 4.2 22.1 3.3 22.7 2.2C21.6 2.8 20.4 3.2 19.1 3.4C18.1 2.3 16.7 1.7 15.1 1.7C12.6 1.7 10.6 3.7 10.6 6.2C10.6 6.6 10.6 7 10.7 7.3C7 7.1 3.7 5.4 1.4 2.8C1 3.4 0.8 4.1 0.8 4.9C0.8 6.4 1.5 7.7 2.6 8.5C1.7 8.5 0.9 8.3 0.2 8V8.1C0.2 10.3 1.6 12.1 3.5 12.6C3.1 12.7 2.7 12.8 2.3 12.8C2 12.8 1.7 12.7 1.4 12.7C2 14.4 3.6 15.6 5.5 15.6C4 16.8 2.1 17.5 0 17.2C1.9 18.4 4.1 19.1 6.5 19.1C15.1 19.1 19.6 12.9 19.6 7.7C19.6 7.5 19.6 7.3 19.6 7.1C20.8 6.3 21.8 5.3 22.6 4.1L23 3Z" fill="currentColor"/>
</svg> 